<svg width="" height="762" viewBox="0 0 173 762" fill="none" xmlns="http://www.w3.org/2000/svg">
<path d="M78.0061 0.5H1.88672V26.7893H56.0742L89.6778 56.9815V185.724L1.88672 253.291V296.205L78.0061 234.573V262.878L1.88672 332.271V380.664L90.6927 305.792V470.145L33.3494 520.82V760.5H71.4091V544.56L130.782 494.797V332.271L171.887 296.205V234.573L130.782 185.724V47.8208L78.0061 0.5Z" fill="black" stroke="black"/>
<path d="M171.887 311L159.474 322.572V507.727L103.887 556.793V760H171.887V311Z" fill="black"/>
<path d="M155.153 325.97L147.154 331.131L144.964 502.723L88.5595 551.593L88.5594 760.759L97.1574 760.724L97.1574 555.463L151.949 505.626L155.153 325.97Z" fill="black" stroke="black"/>
<path d="M64.8867 71.5L64.3454 175.023L0.886719 221.5" stroke="#DAFFB5" stroke-width="3"/>
<ellipse cx="64.8867" cy="125.5" rx="8" ry="6.5" fill="#DAFFB5"/>
<path d="M1.38672 12.5H64.143L108.887 53.5742V482.679L50.8264 533.417V761.5" stroke="#DAFFB5" stroke-width="3"/>
</svg>
