<svg width="419" height="49" viewBox="0 0 419 49" fill="none" xmlns="http://www.w3.org/2000/svg">
<path d="M1.19141 34.3824V0.5H34.3242L1.19141 34.3824Z" fill="black" stroke="black"/>
<path d="M417.191 14.6176V48.5H384.059L417.191 14.6176Z" fill="black" stroke="black"/>
<path d="M42.8681 48.5H1.19141L48.3519 0.5H88.9318L42.8681 48.5Z" fill="black" stroke="black"/>
<path d="M371.128 48.5H329.451L376.612 0.5H417.192L371.128 48.5Z" fill="black" stroke="black"/>
<path d="M316.52 48.5H274.844L322.004 0.5H362.584L316.52 48.5Z" fill="black" stroke="black"/>
<path d="M261.913 48.5H220.236L267.397 0.5H307.977L261.913 48.5Z" fill="black" stroke="black"/>
<path d="M97.4755 48.5H55.7988L102.959 0.5H143.539L97.4755 48.5Z" fill="black" stroke="black"/>
<path d="M152.083 48.5H110.406L157.567 0.5H198.147L152.083 48.5Z" fill="black" stroke="black"/>
<path d="M206.69 48.5H165.014L212.174 0.5H252.754L206.69 48.5Z" fill="black" stroke="black"/>
<path d="M206.69 48.5H165.014L212.174 0.5H252.754L206.69 48.5Z" fill="black" stroke="black"/>
</svg>
