<svg width="73" height="653" viewBox="0 0 73 653" fill="none" xmlns="http://www.w3.org/2000/svg">
<rect x="64.2227" y="64.5505" width="8.55908" height="1.85654" fill="#B6B6FC"/>
<path d="M71.8281 277.085V0.5H65.4143V274.045L44.2489 286.203V368.266L65.4143 379.208V652.146H71.8281V376.169L49.3799 363.403V289.85L71.8281 277.085Z" fill="black" stroke="black"/>
<path d="M0.503906 276.621L0.503906 95.1836H6.91769L6.91769 273.581L28.0832 285.739L28.0832 367.802L6.91769 378.744L6.91769 557.926H1.93042L0.503906 375.705L22.9521 362.939L22.9521 289.386L0.503906 276.621Z" fill="black" stroke="black"/>
<rect x="2.45312" y="561.247" width="4.65706" height="27.7046" stroke="black" stroke-width="2"/>
<rect x="2.45312" y="625.298" width="4.65706" height="25.8481" stroke="black" stroke-width="2"/>
<rect x="1.95312" y="592.308" width="5.65706" height="28.7046" fill="black" stroke="black"/>
<rect x="1.95312" y="592.308" width="5.65706" height="28.7046" fill="black" stroke="black"/>
<path d="M24.2964 231.639L19.5234 237.637V244.635H32.8376V231.639H24.2964Z" fill="black" stroke="black"/>
<path d="M19.5234 260.398L25.6684 265.057H32.8376V252.061H19.5234V260.398Z" fill="black" stroke="black"/>
<path d="M19.5234 419.132L25.6684 423.791H32.8376V410.795H19.5234V419.132Z" fill="black" stroke="black"/>
<path d="M53.7617 236.298L47.6167 231.639H40.4476V244.635H53.7617V236.298Z" fill="black" stroke="black"/>
<path d="M48.9887 265.057L53.7617 259.059V252.061H40.4476V265.057H48.9887Z" fill="black" stroke="black"/>
<path d="M24.2964 390.373L19.5234 396.371V403.369H32.8376V390.373H24.2964Z" fill="black" stroke="black"/>
<path d="M53.7617 395.032L47.6167 390.373H40.4476V403.369H53.7617V395.032Z" fill="black" stroke="black"/>
<path d="M48.9887 423.791L53.7617 417.793V410.795H40.4476V423.791H48.9887Z" fill="black" stroke="black"/>
<rect x="66.1719" y="472.133" width="4.65706" height="36.0591" fill="#B6B6FC" stroke="black" stroke-width="2"/>
<rect x="66.1719" y="149.095" width="4.65706" height="36.0591" fill="#B6B6FC" stroke="black" stroke-width="2"/>
<rect x="66.1719" y="67.4072" width="4.65706" height="36.0591" fill="#B6B6FC" stroke="black" stroke-width="2"/>
<rect x="64.2227" y="509.192" width="8.55908" height="1.85654" fill="#B6B6FC"/>
<rect x="64.2227" y="592.736" width="8.55908" height="1.85654" fill="#B6B6FC"/>
<rect x="64.2227" y="552.821" width="8.55908" height="1.85654" fill="#B6B6FC"/>
<rect x="64.2227" y="469.276" width="8.55908" height="1.85654" fill="#B6B6FC"/>
<rect x="64.2227" y="146.238" width="8.55908" height="1.85654" fill="#B6B6FC"/>
<rect x="64.2227" y="104.466" width="8.55908" height="1.85654" fill="#B6B6FC"/>
<rect x="64.2227" y="187.082" width="8.55908" height="1.85654" fill="#B6B6FC"/>
<rect x="66.1719" y="555.677" width="4.65706" height="36.0591" fill="#B6B6FC" stroke="black" stroke-width="2"/>
<rect x="1.50391" y="1.5" width="4.65706" height="25.8481" stroke="black" stroke-width="2"/>
<rect x="1.50391" y="63.6941" width="4.65706" height="27.7046" stroke="black" stroke-width="2"/>
<rect x="1.00391" y="31.6328" width="5.65706" height="28.7046" fill="black" stroke="black"/>
</svg>
