<svg width="378" height="572" viewBox="0 0 378 572" fill="none" xmlns="http://www.w3.org/2000/svg">
<circle cx="221.5" cy="60.5" r="7" fill="#DAFFB5"/>
<path d="M23.5 518V570.5H58.5V528.5L228.5 359.5V126.5L297.5 57H376V44V26.5H292.5L198.5 114.5V340L23.5 518Z" fill="black" stroke="black" stroke-width="3"/>
<path d="M80.5 569.5V530.639L245.857 365.361L249 133.486L303.5 80.5H375.5V454.045H344.19V108.694H309.5L272.764 144.667V373.118L103.983 545.334V569.5H128L267.382 429.528H319.24V514.246H375.5V537.444H296.5V458.694H267.382L161.5 569.5H128H103.983H80.5Z" fill="#DAFFB5"/>
<path d="M80.5 569.5V530.639L245.857 365.361L249 133.486L303.5 80.5H375.5V454.045H344.19V108.694H309.5L272.764 144.667V373.118L103.983 545.334V569.5H128L267.382 429.528H319.24V514.246H375.5V537.444H296.5V458.694H267.382L161.5 569.5H80.5Z" stroke="#DAFFB5" stroke-width="3"/>
<path d="M377.5 1.5H283L195.5 85.5" stroke="#DAFFB5" stroke-width="3"/>
<path d="M1.5 571.5V502.298L173.5 331.5" stroke="#DAFFB5" stroke-width="3"/>
</svg>
